# Blender v2.80 (sub 75) OBJ File: ''
# www.blender.org
mtllib plane 5.mtl
o Plane
v -0.500789 -0.499310 -0.000000
v -0.001578 -0.499238 -0.000000
v -0.000664 0.001524 0.000000
v -0.500332 0.001381 0.000000
v -0.499876 0.500690 0.000000
v 0.000247 0.500762 0.000000
v 0.001158 1.000000 0.000000
v -0.499421 1.000000 0.000000
v 0.500124 0.500834 0.000000
v 0.499668 0.001667 0.000000
v 1.000000 0.001811 0.000000
v 1.000000 0.500905 0.000000
v 0.499211 -0.499166 -0.000000
v 0.498754 -1.000000 -0.000000
v 1.000000 -1.000000 -0.000000
v 1.000000 -0.499095 -0.000000
v -0.002491 -1.000000 -0.000000
v 0.500579 1.000000 0.000000
v 1.000000 1.000000 0.000000
v -1.000000 0.500619 0.000000
v -1.000000 1.000000 0.000000
v -1.000000 0.001238 0.000000
v -1.000000 -0.499381 -0.000000
v -1.000000 -1.000000 -0.000000
v -0.501246 -1.000000 -0.000000
v -0.500637 -0.332413 -0.000000
v -0.500484 -0.165516 -0.000000
v -0.334385 -0.499286 -0.000000
v -0.167982 -0.499262 -0.000000
v -0.001273 -0.332317 -0.000000
v -0.000969 -0.165397 -0.000000
v -0.167220 0.001476 0.000000
v -0.333776 0.001429 0.000000
v -0.499724 0.667127 0.000000
v -0.499573 0.833563 0.000000
v -0.333168 0.500714 0.000000
v -0.166461 0.500738 0.000000
v 0.000551 0.667175 0.000000
v 0.000854 0.833587 0.000000
v -0.165702 1.000000 0.000000
v -0.332561 1.000000 0.000000
v 0.666749 0.500858 0.000000
v 0.833375 0.500881 0.000000
v 0.499972 0.334445 0.000000
v 0.499820 0.168056 0.000000
v 0.666445 0.001715 0.000000
v 0.833223 0.001763 0.000000
v 1.000000 0.168176 0.000000
v 1.000000 0.334540 0.000000
v 0.666141 -0.499142 -0.000000
v 0.833070 -0.499119 -0.000000
v 0.499059 -0.666111 -0.000000
v 0.498906 -0.833055 -0.000000
v 0.665836 -1.000000 -0.000000
v 0.832918 -1.000000 -0.000000
v 1.000000 -0.833032 -0.000000
v 1.000000 -0.666063 -0.000000
v 0.499516 -0.165277 -0.000000
v 0.499363 -0.332222 -0.000000
v 1.000000 -0.165158 -0.000000
v 1.000000 -0.332126 -0.000000
v 0.166113 0.001572 0.000000
v 0.332891 0.001619 0.000000
v 0.165352 -0.499214 -0.000000
v 0.332281 -0.499190 -0.000000
v -0.001882 -0.666159 -0.000000
v -0.002187 -0.833079 -0.000000
v 0.331672 -1.000000 -0.000000
v 0.164591 -1.000000 -0.000000
v 0.667053 1.000000 0.000000
v 0.833526 1.000000 0.000000
v 0.500276 0.667223 0.000000
v 0.500427 0.833611 0.000000
v 1.000000 0.667270 0.000000
v 1.000000 0.833635 0.000000
v 0.167632 1.000000 0.000000
v 0.334105 1.000000 0.000000
v 0.166873 0.500786 0.000000
v 0.333498 0.500810 0.000000
v -0.000360 0.167937 0.000000
v -0.000057 0.334349 0.000000
v -1.000000 0.667079 0.000000
v -1.000000 0.833540 0.000000
v -0.666584 0.500666 0.000000
v -0.833292 0.500643 0.000000
v -0.666281 1.000000 0.000000
v -0.833140 1.000000 0.000000
v -1.000000 0.334159 0.000000
v -1.000000 0.167698 0.000000
v -0.666888 0.001333 0.000000
v -0.833444 0.001286 0.000000
v -0.500180 0.167817 0.000000
v -0.500028 0.334254 0.000000
v -1.000000 -0.165635 -0.000000
v -1.000000 -0.332508 -0.000000
v -0.667193 -0.499334 -0.000000
v -0.833596 -0.499357 -0.000000
v -1.000000 -0.666254 -0.000000
v -1.000000 -0.833127 -0.000000
v -0.833749 -1.000000 -0.000000
v -0.667497 -1.000000 -0.000000
v -0.500941 -0.666207 -0.000000
v -0.501094 -0.833103 -0.000000
v -0.168743 -1.000000 -0.000000
v -0.334994 -1.000000 -0.000000
v -0.334791 -0.833095 -0.000000
v -0.334588 -0.666191 -0.000000
v -0.168489 -0.833087 -0.000000
v -0.168235 -0.666175 -0.000000
v -0.833698 -0.833119 -0.000000
v -0.833647 -0.666238 -0.000000
v -0.667396 -0.833111 -0.000000
v -0.667294 -0.666222 -0.000000
v -0.833546 -0.332476 -0.000000
v -0.833495 -0.165595 -0.000000
v -0.667091 -0.332445 -0.000000
v -0.666990 -0.165556 -0.000000
v -0.333573 0.167857 0.000000
v -0.333371 0.334286 0.000000
v -0.166967 0.167897 0.000000
v -0.166714 0.334317 0.000000
v -0.833393 0.167738 0.000000
v -0.833343 0.334190 0.000000
v -0.666787 0.167778 0.000000
v -0.666685 0.334222 0.000000
v -0.833241 0.667095 0.000000
v -0.833191 0.833548 0.000000
v -0.666483 0.667111 0.000000
v -0.666382 0.833555 0.000000
v 0.166620 0.334381 0.000000
v 0.333296 0.334413 0.000000
v 0.166366 0.167976 0.000000
v 0.333093 0.168016 0.000000
v 0.167379 0.833595 0.000000
v 0.333903 0.833603 0.000000
v 0.167126 0.667191 0.000000
v 0.333701 0.667207 0.000000
v 0.666952 0.833619 0.000000
v 0.833476 0.833627 0.000000
v 0.666850 0.667238 0.000000
v 0.833425 0.667254 0.000000
v 0.165098 -0.666143 -0.000000
v 0.332078 -0.666127 -0.000000
v 0.164844 -0.833071 -0.000000
v 0.331875 -0.833063 -0.000000
v 0.165859 -0.165357 -0.000000
v 0.332688 -0.165317 -0.000000
v 0.165606 -0.332285 -0.000000
v 0.332484 -0.332254 -0.000000
v 0.666344 -0.165237 -0.000000
v 0.833172 -0.165198 -0.000000
v 0.666242 -0.332190 -0.000000
v 0.833121 -0.332158 -0.000000
v 0.666039 -0.666095 -0.000000
v 0.833020 -0.666079 -0.000000
v 0.665938 -0.833047 -0.000000
v 0.832969 -0.833040 -0.000000
v 0.666648 0.334477 0.000000
v 0.833324 0.334509 0.000000
v 0.666547 0.168096 0.000000
v 0.833273 0.168136 0.000000
v -0.332966 0.667143 0.000000
v -0.332764 0.833571 0.000000
v -0.166208 0.667159 0.000000
v -0.165955 0.833579 0.000000
v -0.334182 -0.332381 -0.000000
v -0.333979 -0.165476 -0.000000
v -0.167728 -0.332349 -0.000000
v -0.167474 -0.165436 -0.000000
vt 0.416263 0.417282
vt 0.499516 0.417302
vt 0.499668 0.500762
vt 0.416390 0.500738
vt 0.417023 0.916790
vt 0.500427 0.916794
vt 0.500579 1.000000
vt 0.417149 1.000000
vt 0.916637 0.584068
vt 0.916611 0.500881
vt 1.000000 0.500905
vt 1.000000 0.584088
vt 0.916484 0.083480
vt 0.916459 0.000000
vt 1.000000 0.000000
vt 1.000000 0.083484
vt 0.916561 0.333921
vt 0.916535 0.250441
vt 1.000000 0.250453
vt 1.000000 0.333937
vt 0.666242 0.333873
vt 0.666141 0.250405
vt 0.749606 0.250417
vt 0.749682 0.333889
vt 0.665938 0.083468
vt 0.665836 0.000000
vt 0.749377 0.000000
vt 0.749453 0.083472
vt 0.916713 0.833627
vt 0.916687 0.750441
vt 1.000000 0.750453
vt 1.000000 0.833635
vt 0.666851 0.833603
vt 0.666749 0.750405
vt 0.750062 0.750417
vt 0.750138 0.833611
vt 0.666547 0.584008
vt 0.666445 0.500810
vt 0.749834 0.500834
vt 0.749910 0.584028
vt 0.166809 0.916778
vt 0.250214 0.916782
vt 0.250290 1.000000
vt 0.166860 1.000000
vt 0.166657 0.667111
vt 0.249986 0.667127
vt 0.250062 0.750345
vt 0.166708 0.750333
vt 0.416643 0.667159
vt 0.499972 0.667175
vt 0.500124 0.750381
vt 0.416770 0.750369
vt 0.166505 0.417222
vt 0.249758 0.417242
vt 0.249834 0.500690
vt 0.166556 0.500666
vt 0.166353 0.166889
vt 0.249530 0.166897
vt 0.249606 0.250345
vt 0.166404 0.250333
vt 0.415882 0.166913
vt 0.499059 0.166921
vt 0.499211 0.250381
vt 0.416009 0.250369
vt 0.332706 0.166905
vt 0.332808 0.250357
vt 0.249377 0.000000
vt 0.332503 0.000000
vt 0.332604 0.083452
vt 0.249453 0.083448
vt 0.415628 0.000000
vt 0.415755 0.083456
vt 0.498754 0.000000
vt 0.498906 0.083460
vt 0.000000 0.166873
vt 0.083177 0.166881
vt 0.083202 0.250321
vt 0.000000 0.250309
vt 0.000000 0.000000
vt 0.083126 0.000000
vt 0.083151 0.083440
vt 0.000000 0.083436
vt 0.166251 0.000000
vt 0.166302 0.083444
vt 0.000000 0.417182
vt 0.083253 0.417202
vt 0.083278 0.500643
vt 0.000000 0.500619
vt 0.083227 0.333762
vt 0.000000 0.333746
vt 0.166455 0.333777
vt 0.249682 0.333793
vt 0.333315 0.667143
vt 0.333416 0.750357
vt 0.333112 0.500714
vt 0.333213 0.583928
vt 0.249910 0.583908
vt 0.416517 0.583948
vt 0.499820 0.583968
vt 0.000000 0.667079
vt 0.083329 0.667095
vt 0.083354 0.750321
vt 0.000000 0.750309
vt 0.083303 0.583869
vt 0.000000 0.583849
vt 0.166607 0.583889
vt 0.000000 0.916770
vt 0.083405 0.916774
vt 0.083430 1.000000
vt 0.000000 1.000000
vt 0.083379 0.833547
vt 0.000000 0.833539
vt 0.166759 0.833555
vt 0.250138 0.833563
vt 0.666648 0.667207
vt 0.749986 0.667223
vt 0.583310 0.667191
vt 0.583437 0.750393
vt 0.583183 0.583988
vt 0.583057 0.500786
vt 0.667053 1.000000
vt 0.666952 0.916802
vt 0.750214 0.916806
vt 0.750290 1.000000
vt 0.583690 0.916798
vt 0.583816 1.000000
vt 0.500276 0.833587
vt 0.583563 0.833595
vt 0.916763 1.000000
vt 0.916738 0.916814
vt 1.000000 0.916818
vt 1.000000 1.000000
vt 0.833476 0.916810
vt 0.833527 1.000000
vt 0.833425 0.833619
vt 0.833375 0.750429
vt 0.666039 0.166937
vt 0.749530 0.166945
vt 0.582549 0.166929
vt 0.582676 0.250393
vt 0.582422 0.083464
vt 0.582295 0.000000
vt 0.666344 0.417342
vt 0.749758 0.417362
vt 0.582930 0.417322
vt 0.499363 0.333841
vt 0.582803 0.333857
vt 0.916586 0.417401
vt 1.000000 0.417421
vt 0.833172 0.417381
vt 0.833223 0.500858
vt 0.833121 0.333905
vt 0.833071 0.250429
vt 0.916510 0.166961
vt 1.000000 0.166969
vt 0.833020 0.166953
vt 0.832969 0.083476
vt 0.832918 0.000000
vt 0.916662 0.667254
vt 1.000000 0.667270
vt 0.833324 0.667238
vt 0.833273 0.584048
vt 0.333618 0.916786
vt 0.333720 1.000000
vt 0.333517 0.833571
vt 0.416896 0.833579
vt 0.333011 0.417262
vt 0.332909 0.333809
vt 0.416136 0.333825
vn 0.0000 -0.0000 1.0000
usemtl None
s 1
f 169/1/1 31/2/1 3/3/1 32/4/1
f 165/5/1 39/6/1 7/7/1 40/8/1
f 161/9/1 47/10/1 11/11/1 48/12/1
f 157/13/1 55/14/1 15/15/1 56/16/1
f 153/17/1 51/18/1 16/19/1 61/20/1
f 149/21/1 65/22/1 13/23/1 59/24/1
f 145/25/1 68/26/1 14/27/1 53/28/1
f 141/29/1 43/30/1 12/31/1 74/32/1
f 137/33/1 79/34/1 9/35/1 72/36/1
f 133/37/1 63/38/1 10/39/1 45/40/1
f 129/41/1 35/42/1 8/43/1 86/44/1
f 125/45/1 93/46/1 5/47/1 84/48/1
f 121/49/1 81/50/1 6/51/1 37/52/1
f 117/53/1 27/54/1 4/55/1 90/56/1
f 113/57/1 102/58/1 1/59/1 96/60/1
f 109/61/1 66/62/1 2/63/1 29/64/1
f 102/58/1 107/65/1 28/66/1 1/59/1
f 107/65/1 109/61/1 29/64/1 28/66/1
f 25/67/1 105/68/1 106/69/1 103/70/1
f 103/70/1 106/69/1 107/65/1 102/58/1
f 105/68/1 104/71/1 108/72/1 106/69/1
f 106/69/1 108/72/1 109/61/1 107/65/1
f 104/71/1 17/73/1 67/74/1 108/72/1
f 108/72/1 67/74/1 66/62/1 109/61/1
f 98/75/1 111/76/1 97/77/1 23/78/1
f 111/76/1 113/57/1 96/60/1 97/77/1
f 24/79/1 100/80/1 110/81/1 99/82/1
f 99/82/1 110/81/1 111/76/1 98/75/1
f 100/80/1 101/83/1 112/84/1 110/81/1
f 110/81/1 112/84/1 113/57/1 111/76/1
f 101/83/1 25/67/1 103/70/1 112/84/1
f 112/84/1 103/70/1 102/58/1 113/57/1
f 94/85/1 115/86/1 91/87/1 22/88/1
f 115/86/1 117/53/1 90/56/1 91/87/1
f 23/78/1 97/77/1 114/89/1 95/90/1
f 95/90/1 114/89/1 115/86/1 94/85/1
f 97/77/1 96/60/1 116/91/1 114/89/1
f 114/89/1 116/91/1 117/53/1 115/86/1
f 96/60/1 1/59/1 26/92/1 116/91/1
f 116/91/1 26/92/1 27/54/1 117/53/1
f 93/46/1 119/93/1 36/94/1 5/47/1
f 119/93/1 121/49/1 37/52/1 36/94/1
f 4/55/1 33/95/1 118/96/1 92/97/1
f 92/97/1 118/96/1 119/93/1 93/46/1
f 33/95/1 32/4/1 120/98/1 118/96/1
f 118/96/1 120/98/1 121/49/1 119/93/1
f 32/4/1 3/3/1 80/99/1 120/98/1
f 120/98/1 80/99/1 81/50/1 121/49/1
f 88/100/1 123/101/1 85/102/1 20/103/1
f 123/101/1 125/45/1 84/48/1 85/102/1
f 22/88/1 91/87/1 122/104/1 89/105/1
f 89/105/1 122/104/1 123/101/1 88/100/1
f 91/87/1 90/56/1 124/106/1 122/104/1
f 122/104/1 124/106/1 125/45/1 123/101/1
f 90/56/1 4/55/1 92/97/1 124/106/1
f 124/106/1 92/97/1 93/46/1 125/45/1
f 83/107/1 127/108/1 87/109/1 21/110/1
f 127/108/1 129/41/1 86/44/1 87/109/1
f 20/103/1 85/102/1 126/111/1 82/112/1
f 82/112/1 126/111/1 127/108/1 83/107/1
f 85/102/1 84/48/1 128/113/1 126/111/1
f 126/111/1 128/113/1 129/41/1 127/108/1
f 84/48/1 5/47/1 34/114/1 128/113/1
f 128/113/1 34/114/1 35/42/1 129/41/1
f 79/34/1 131/115/1 44/116/1 9/35/1
f 131/115/1 133/37/1 45/40/1 44/116/1
f 6/51/1 81/50/1 130/117/1 78/118/1
f 78/118/1 130/117/1 131/115/1 79/34/1
f 81/50/1 80/99/1 132/119/1 130/117/1
f 130/117/1 132/119/1 133/37/1 131/115/1
f 80/99/1 3/3/1 62/120/1 132/119/1
f 132/119/1 62/120/1 63/38/1 133/37/1
f 77/121/1 135/122/1 73/123/1 18/124/1
f 135/122/1 137/33/1 72/36/1 73/123/1
f 7/7/1 39/6/1 134/125/1 76/126/1
f 76/126/1 134/125/1 135/122/1 77/121/1
f 39/6/1 38/127/1 136/128/1 134/125/1
f 134/125/1 136/128/1 137/33/1 135/122/1
f 38/127/1 6/51/1 78/118/1 136/128/1
f 136/128/1 78/118/1 79/34/1 137/33/1
f 71/129/1 139/130/1 75/131/1 19/132/1
f 139/130/1 141/29/1 74/32/1 75/131/1
f 18/124/1 73/123/1 138/133/1 70/134/1
f 70/134/1 138/133/1 139/130/1 71/129/1
f 73/123/1 72/36/1 140/135/1 138/133/1
f 138/133/1 140/135/1 141/29/1 139/130/1
f 72/36/1 9/35/1 42/136/1 140/135/1
f 140/135/1 42/136/1 43/30/1 141/29/1
f 65/22/1 143/137/1 52/138/1 13/23/1
f 143/137/1 145/25/1 53/28/1 52/138/1
f 2/63/1 66/62/1 142/139/1 64/140/1
f 64/140/1 142/139/1 143/137/1 65/22/1
f 66/62/1 67/74/1 144/141/1 142/139/1
f 142/139/1 144/141/1 145/25/1 143/137/1
f 67/74/1 17/73/1 69/142/1 144/141/1
f 144/141/1 69/142/1 68/26/1 145/25/1
f 63/38/1 147/143/1 58/144/1 10/39/1
f 147/143/1 149/21/1 59/24/1 58/144/1
f 3/3/1 31/2/1 146/145/1 62/120/1
f 62/120/1 146/145/1 147/143/1 63/38/1
f 31/2/1 30/146/1 148/147/1 146/145/1
f 146/145/1 148/147/1 149/21/1 147/143/1
f 30/146/1 2/63/1 64/140/1 148/147/1
f 148/147/1 64/140/1 65/22/1 149/21/1
f 47/10/1 151/148/1 60/149/1 11/11/1
f 151/148/1 153/17/1 61/20/1 60/149/1
f 10/39/1 58/144/1 150/150/1 46/151/1
f 46/151/1 150/150/1 151/148/1 47/10/1
f 58/144/1 59/24/1 152/152/1 150/150/1
f 150/150/1 152/152/1 153/17/1 151/148/1
f 59/24/1 13/23/1 50/153/1 152/152/1
f 152/152/1 50/153/1 51/18/1 153/17/1
f 51/18/1 155/154/1 57/155/1 16/19/1
f 155/154/1 157/13/1 56/16/1 57/155/1
f 13/23/1 52/138/1 154/156/1 50/153/1
f 50/153/1 154/156/1 155/154/1 51/18/1
f 52/138/1 53/28/1 156/157/1 154/156/1
f 154/156/1 156/157/1 157/13/1 155/154/1
f 53/28/1 14/27/1 54/158/1 156/157/1
f 156/157/1 54/158/1 55/14/1 157/13/1
f 43/30/1 159/159/1 49/160/1 12/31/1
f 159/159/1 161/9/1 48/12/1 49/160/1
f 9/35/1 44/116/1 158/161/1 42/136/1
f 42/136/1 158/161/1 159/159/1 43/30/1
f 44/116/1 45/40/1 160/162/1 158/161/1
f 158/161/1 160/162/1 161/9/1 159/159/1
f 45/40/1 10/39/1 46/151/1 160/162/1
f 160/162/1 46/151/1 47/10/1 161/9/1
f 35/42/1 163/163/1 41/164/1 8/43/1
f 163/163/1 165/5/1 40/8/1 41/164/1
f 5/47/1 36/94/1 162/165/1 34/114/1
f 34/114/1 162/165/1 163/163/1 35/42/1
f 36/94/1 37/52/1 164/166/1 162/165/1
f 162/165/1 164/166/1 165/5/1 163/163/1
f 37/52/1 6/51/1 38/127/1 164/166/1
f 164/166/1 38/127/1 39/6/1 165/5/1
f 27/54/1 167/167/1 33/95/1 4/55/1
f 167/167/1 169/1/1 32/4/1 33/95/1
f 1/59/1 28/66/1 166/168/1 26/92/1
f 26/92/1 166/168/1 167/167/1 27/54/1
f 28/66/1 29/64/1 168/169/1 166/168/1
f 166/168/1 168/169/1 169/1/1 167/167/1
f 29/64/1 2/63/1 30/146/1 168/169/1
f 168/169/1 30/146/1 31/2/1 169/1/1
