# Blender v2.80 (sub 75) OBJ File: ''
# www.blender.org
mtllib triangle 0sub.mtl
o Plane_Plane.001
v -0.707107 0.000000 0.707107
v 0.707107 0.000000 -0.707107
v 0.707107 0.000000 0.707107
v -0.707107 0.000000 -0.707107
v 0.000000 1.270615 0.000000
vt 0.500000 0.500000
vt 1.000000 0.500000
vt 0.500000 1.000000
vt 0.000000 0.500000
vt 0.500000 0.000000
vt 0.000000 0.000000
vt 0.000000 0.000000
vt 0.000000 0.000000
vt 0.000000 0.000000
vn 0.0000 0.4863 -0.8738
vn -0.8738 0.4863 0.0000
vn 0.0000 0.4863 0.8738
vn 0.0000 -1.0000 0.0000
vn 0.8738 0.4863 0.0000
usemtl None
s off
f 5/1/1 2/2/1 4/3/1
f 1/4/2 5/1/2 4/3/2
f 1/4/3 3/5/3 5/1/3
f 3/6/4 1/7/4 2/8/4
f 2/8/4 1/7/4 4/9/4
f 2/2/5 5/1/5 3/5/5
