# Blender v2.80 (sub 75) OBJ File: ''
# www.blender.org
mtllib triangle 1sub.mtl
o Plane_Plane.001
v -0.707107 0.000000 0.707107
v 0.707107 0.000000 -0.707107
v 0.707107 0.000000 0.707107
v -0.707107 0.000000 -0.707107
v 0.000000 1.270615 0.000000
v 0.000000 0.000000 0.000000
v -0.353553 0.635307 0.353553
v 0.353553 0.635307 -0.353553
v 0.353553 0.635307 0.353553
v -0.353553 0.635307 -0.353553
v 0.000000 0.000000 0.707107
v -0.707107 0.000000 0.000000
v 0.000000 0.000000 -0.707107
v 0.707107 0.000000 0.000000
vt 0.500000 0.500000
vt 0.750000 0.500000
vt 0.500000 0.750000
vt 0.000000 0.500000
vt 0.250000 0.500000
vt 0.250000 0.750000
vt 0.250000 0.250000
vt 0.000000 0.000000
vt 0.000000 0.000000
vt 0.000000 0.000000
vt 0.000000 0.000000
vt 0.000000 0.000000
vt 0.000000 0.000000
vt 1.000000 0.500000
vt 0.750000 0.250000
vt 0.500000 0.250000
vt 0.500000 0.000000
vt 0.000000 0.000000
vt 0.000000 0.000000
vt 0.000000 0.000000
vt 0.500000 1.000000
vt 0.750000 0.750000
vn 0.0000 0.4863 -0.8738
vn -0.8738 0.4863 0.0000
vn 0.0000 0.4863 0.8738
vn 0.0000 -1.0000 0.0000
vn 0.8738 0.4863 0.0000
usemtl None
s off
f 5/1/1 8/2/1 10/3/1
f 1/4/2 7/5/2 12/6/2
f 1/4/3 11/7/3 7/5/3
f 3/8/4 11/9/4 14/10/4
f 2/11/4 6/12/4 13/13/4
f 2/14/5 8/2/5 14/15/5
f 14/15/5 9/16/5 3/17/5
f 14/15/5 8/2/5 9/16/5
f 8/2/5 5/1/5 9/16/5
f 13/13/4 12/18/4 4/19/4
f 13/13/4 6/12/4 12/18/4
f 6/12/4 1/20/4 12/18/4
f 14/10/4 6/12/4 2/11/4
f 14/10/4 11/9/4 6/12/4
f 11/9/4 1/20/4 6/12/4
f 7/5/3 9/16/3 5/1/3
f 7/5/3 11/7/3 9/16/3
f 11/7/3 3/17/3 9/16/3
f 12/6/2 10/3/2 4/21/2
f 12/6/2 7/5/2 10/3/2
f 7/5/2 5/1/2 10/3/2
f 10/3/1 13/22/1 4/21/1
f 10/3/1 8/2/1 13/22/1
f 8/2/1 2/14/1 13/22/1
