# Blender v2.80 (sub 75) OBJ File: ''
# www.blender.org
mtllib triangle 4sub.mtl
o Plane_Plane.001
v -0.707107 0.000000 0.707107
v 0.707107 0.000000 -0.707107
v 0.707107 0.000000 0.707107
v -0.707107 0.000000 -0.707107
v 0.000000 1.270615 0.000000
v 0.424264 0.000000 -0.424264
v 0.141421 0.000000 -0.141421
v -0.141421 0.000000 0.141421
v -0.424264 0.000000 0.424264
v -0.141421 1.016492 0.141421
v -0.282843 0.762369 0.282843
v -0.424264 0.508246 0.424264
v -0.565685 0.254123 0.565685
v 0.565685 0.254123 -0.565685
v 0.424264 0.508246 -0.424264
v 0.282843 0.762369 -0.282843
v 0.141421 1.016492 -0.141421
v 0.565685 0.254123 0.565685
v 0.424264 0.508246 0.424264
v 0.282843 0.762369 0.282843
v 0.141421 1.016492 0.141421
v -0.141421 1.016492 -0.141421
v -0.282843 0.762369 -0.282843
v -0.424264 0.508246 -0.424264
v -0.565685 0.254123 -0.565685
v 0.424264 0.000000 0.707107
v 0.141421 0.000000 0.707107
v -0.141421 0.000000 0.707107
v -0.424264 0.000000 0.707107
v -0.707107 0.000000 0.424264
v -0.707107 0.000000 0.141421
v -0.707107 0.000000 -0.141421
v -0.707107 0.000000 -0.424264
v -0.424264 0.000000 -0.707107
v -0.141421 0.000000 -0.707107
v 0.141421 0.000000 -0.707107
v 0.424264 0.000000 -0.707107
v 0.707107 0.000000 -0.424264
v 0.707107 0.000000 -0.141421
v 0.707107 0.000000 0.141421
v 0.707107 0.000000 0.424264
v 0.565685 0.254123 0.282843
v 0.565685 0.254123 0.000000
v 0.424264 0.508246 0.141421
v 0.565685 0.254123 -0.282843
v 0.424264 0.508246 -0.141421
v 0.282843 0.762369 0.000000
v -0.424264 0.000000 -0.424264
v -0.141421 0.000000 -0.424264
v -0.424264 0.000000 -0.141421
v 0.141421 0.000000 -0.424264
v -0.141421 0.000000 -0.141421
v -0.424264 0.000000 0.141421
v 0.424264 0.000000 -0.141421
v 0.424264 0.000000 0.141421
v 0.141421 0.000000 0.141421
v 0.424264 0.000000 0.424264
v 0.141421 0.000000 0.424264
v -0.141421 0.000000 0.424264
v 0.000000 0.762369 0.282843
v -0.141421 0.508246 0.424264
v 0.141421 0.508246 0.424264
v -0.282843 0.254123 0.565685
v 0.000000 0.254123 0.565685
v 0.282843 0.254123 0.565685
v -0.565685 0.254123 -0.282843
v -0.565685 0.254123 0.000000
v -0.424264 0.508246 -0.141421
v -0.565685 0.254123 0.282843
v -0.424264 0.508246 0.141421
v -0.282843 0.762369 0.000000
v -0.282843 0.254123 -0.565685
v -0.141421 0.508246 -0.424264
v 0.000000 0.254123 -0.565685
v 0.000000 0.762369 -0.282843
v 0.141421 0.508246 -0.424264
v 0.282843 0.254123 -0.565685
vt 0.500000 0.500000
vt 0.600000 0.500000
vt 0.500000 0.600000
vt 0.000000 0.500000
vt 0.100000 0.500000
vt 0.100000 0.600000
vt 0.100000 0.400000
vt 0.000000 0.000000
vt 0.000000 0.000000
vt 0.000000 0.000000
vt 0.000000 0.000000
vt 0.000000 0.000000
vt 0.000000 0.000000
vt 1.000000 0.500000
vt 0.900000 0.500000
vt 0.900000 0.400000
vt 0.600000 0.100000
vt 0.500000 0.100000
vt 0.500000 0.000000
vt 0.700000 0.200000
vt 0.600000 0.200000
vt 0.800000 0.300000
vt 0.700000 0.300000
vt 0.800000 0.400000
vt 0.500000 0.200000
vt 0.600000 0.300000
vt 0.500000 0.300000
vt 0.700000 0.400000
vt 0.600000 0.400000
vt 0.500000 0.400000
vt 0.800000 0.500000
vt 0.700000 0.500000
vt 0.000000 0.000000
vt 0.000000 0.000000
vt 0.000000 0.000000
vt 0.000000 0.000000
vt 0.000000 0.000000
vt 0.000000 0.000000
vt 0.000000 0.000000
vt 0.000000 0.000000
vt 0.000000 0.000000
vt 0.000000 0.000000
vt 0.000000 0.000000
vt 0.000000 0.000000
vt 0.000000 0.000000
vt 0.000000 0.000000
vt 0.000000 0.000000
vt 0.000000 0.000000
vt 0.000000 0.000000
vt 0.000000 0.000000
vt 0.000000 0.000000
vt 0.000000 0.000000
vt 0.000000 0.000000
vt 0.000000 0.000000
vt 0.000000 0.000000
vt 0.000000 0.000000
vt 0.000000 0.000000
vt 0.000000 0.000000
vt 0.000000 0.000000
vt 0.000000 0.000000
vt 0.000000 0.000000
vt 0.000000 0.000000
vt 0.400000 0.500000
vt 0.300000 0.500000
vt 0.400000 0.400000
vt 0.200000 0.500000
vt 0.300000 0.400000
vt 0.200000 0.400000
vt 0.400000 0.300000
vt 0.300000 0.300000
vt 0.400000 0.200000
vt 0.200000 0.300000
vt 0.300000 0.200000
vt 0.400000 0.100000
vt 0.400000 0.900000
vt 0.500000 0.900000
vt 0.500000 1.000000
vt 0.300000 0.800000
vt 0.400000 0.800000
vt 0.200000 0.700000
vt 0.300000 0.700000
vt 0.200000 0.600000
vt 0.500000 0.800000
vt 0.400000 0.700000
vt 0.500000 0.700000
vt 0.300000 0.600000
vt 0.400000 0.600000
vt 0.600000 0.900000
vt 0.600000 0.800000
vt 0.600000 0.700000
vt 0.600000 0.600000
vt 0.700000 0.800000
vt 0.700000 0.700000
vt 0.800000 0.700000
vt 0.700000 0.600000
vt 0.800000 0.600000
vt 0.900000 0.600000
vn 0.0000 0.4863 -0.8738
vn -0.8738 0.4863 0.0000
vn -0.0000 0.4863 0.8738
vn 0.0000 -1.0000 0.0000
vn 0.8738 0.4863 -0.0000
usemtl None
s off
f 5/1/1 17/2/1 22/3/1
f 1/4/2 13/5/2 30/6/2
f 1/4/3 29/7/3 13/5/3
f 3/8/4 26/9/4 41/10/4
f 2/11/4 6/12/4 37/13/4
f 2/14/5 14/15/5 38/16/5
f 41/17/5 18/18/5 3/19/5
f 40/20/5 42/21/5 41/17/5
f 39/22/5 43/23/5 40/20/5
f 38/16/5 45/24/5 39/22/5
f 41/17/5 42/21/5 18/18/5
f 42/21/5 19/25/5 18/18/5
f 40/20/5 43/23/5 42/21/5
f 43/23/5 44/26/5 42/21/5
f 42/21/5 44/26/5 19/25/5
f 44/26/5 20/27/5 19/25/5
f 39/22/5 45/24/5 43/23/5
f 45/24/5 46/28/5 43/23/5
f 43/23/5 46/28/5 44/26/5
f 46/28/5 47/29/5 44/26/5
f 44/26/5 47/29/5 20/27/5
f 47/29/5 21/30/5 20/27/5
f 38/16/5 14/15/5 45/24/5
f 14/15/5 15/31/5 45/24/5
f 45/24/5 15/31/5 46/28/5
f 15/31/5 16/32/5 46/28/5
f 46/28/5 16/32/5 47/29/5
f 16/32/5 17/2/5 47/29/5
f 47/29/5 17/2/5 21/30/5
f 17/2/5 5/1/5 21/30/5
f 34/33/4 33/34/4 4/35/4
f 35/36/4 48/37/4 34/33/4
f 36/38/4 49/39/4 35/36/4
f 37/13/4 51/40/4 36/38/4
f 34/33/4 48/37/4 33/34/4
f 48/37/4 32/41/4 33/34/4
f 35/36/4 49/39/4 48/37/4
f 49/39/4 50/42/4 48/37/4
f 48/37/4 50/42/4 32/41/4
f 50/42/4 31/43/4 32/41/4
f 36/38/4 51/40/4 49/39/4
f 51/40/4 52/44/4 49/39/4
f 49/39/4 52/44/4 50/42/4
f 52/44/4 53/45/4 50/42/4
f 50/42/4 53/45/4 31/43/4
f 53/45/4 30/46/4 31/43/4
f 37/13/4 6/12/4 51/40/4
f 6/12/4 7/47/4 51/40/4
f 51/40/4 7/47/4 52/44/4
f 7/47/4 8/48/4 52/44/4
f 52/44/4 8/48/4 53/45/4
f 8/48/4 9/49/4 53/45/4
f 53/45/4 9/49/4 30/46/4
f 9/49/4 1/50/4 30/46/4
f 38/51/4 6/12/4 2/11/4
f 39/52/4 54/53/4 38/51/4
f 40/54/4 55/55/4 39/52/4
f 41/10/4 57/56/4 40/54/4
f 38/51/4 54/53/4 6/12/4
f 54/53/4 7/47/4 6/12/4
f 39/52/4 55/55/4 54/53/4
f 55/55/4 56/57/4 54/53/4
f 54/53/4 56/57/4 7/47/4
f 56/57/4 8/48/4 7/47/4
f 40/54/4 57/56/4 55/55/4
f 57/56/4 58/58/4 55/55/4
f 55/55/4 58/58/4 56/57/4
f 58/58/4 59/59/4 56/57/4
f 56/57/4 59/59/4 8/48/4
f 59/59/4 9/49/4 8/48/4
f 41/10/4 26/9/4 57/56/4
f 26/9/4 27/60/4 57/56/4
f 57/56/4 27/60/4 58/58/4
f 27/60/4 28/61/4 58/58/4
f 58/58/4 28/61/4 59/59/4
f 28/61/4 29/62/4 59/59/4
f 59/59/4 29/62/4 9/49/4
f 29/62/4 1/50/4 9/49/4
f 10/63/3 21/30/3 5/1/3
f 11/64/3 60/65/3 10/63/3
f 12/66/3 61/67/3 11/64/3
f 13/5/3 63/68/3 12/66/3
f 10/63/3 60/65/3 21/30/3
f 60/65/3 20/27/3 21/30/3
f 11/64/3 61/67/3 60/65/3
f 61/67/3 62/69/3 60/65/3
f 60/65/3 62/69/3 20/27/3
f 62/69/3 19/25/3 20/27/3
f 12/66/3 63/68/3 61/67/3
f 63/68/3 64/70/3 61/67/3
f 61/67/3 64/70/3 62/69/3
f 64/70/3 65/71/3 62/69/3
f 62/69/3 65/71/3 19/25/3
f 65/71/3 18/18/3 19/25/3
f 13/5/3 29/7/3 63/68/3
f 29/7/3 28/72/3 63/68/3
f 63/68/3 28/72/3 64/70/3
f 28/72/3 27/73/3 64/70/3
f 64/70/3 27/73/3 65/71/3
f 27/73/3 26/74/3 65/71/3
f 65/71/3 26/74/3 18/18/3
f 26/74/3 3/19/3 18/18/3
f 33/75/2 25/76/2 4/77/2
f 32/78/2 66/79/2 33/75/2
f 31/80/2 67/81/2 32/78/2
f 30/6/2 69/82/2 31/80/2
f 33/75/2 66/79/2 25/76/2
f 66/79/2 24/83/2 25/76/2
f 32/78/2 67/81/2 66/79/2
f 67/81/2 68/84/2 66/79/2
f 66/79/2 68/84/2 24/83/2
f 68/84/2 23/85/2 24/83/2
f 31/80/2 69/82/2 67/81/2
f 69/82/2 70/86/2 67/81/2
f 67/81/2 70/86/2 68/84/2
f 70/86/2 71/87/2 68/84/2
f 68/84/2 71/87/2 23/85/2
f 71/87/2 22/3/2 23/85/2
f 30/6/2 13/5/2 69/82/2
f 13/5/2 12/66/2 69/82/2
f 69/82/2 12/66/2 70/86/2
f 12/66/2 11/64/2 70/86/2
f 70/86/2 11/64/2 71/87/2
f 11/64/2 10/63/2 71/87/2
f 71/87/2 10/63/2 22/3/2
f 10/63/2 5/1/2 22/3/2
f 25/76/1 34/88/1 4/77/1
f 24/83/1 72/89/1 25/76/1
f 23/85/1 73/90/1 24/83/1
f 22/3/1 75/91/1 23/85/1
f 25/76/1 72/89/1 34/88/1
f 72/89/1 35/92/1 34/88/1
f 24/83/1 73/90/1 72/89/1
f 73/90/1 74/93/1 72/89/1
f 72/89/1 74/93/1 35/92/1
f 74/93/1 36/94/1 35/92/1
f 23/85/1 75/91/1 73/90/1
f 75/91/1 76/95/1 73/90/1
f 73/90/1 76/95/1 74/93/1
f 76/95/1 77/96/1 74/93/1
f 74/93/1 77/96/1 36/94/1
f 77/96/1 37/97/1 36/94/1
f 22/3/1 17/2/1 75/91/1
f 17/2/1 16/32/1 75/91/1
f 75/91/1 16/32/1 76/95/1
f 16/32/1 15/31/1 76/95/1
f 76/95/1 15/31/1 77/96/1
f 15/31/1 14/15/1 77/96/1
f 77/96/1 14/15/1 37/97/1
f 14/15/1 2/14/1 37/97/1
