# Blender v2.80 (sub 75) OBJ File: ''
# www.blender.org
mtllib triangle 2sub.mtl
o Plane_Plane.001
v -0.707107 0.000000 0.707107
v 0.707107 0.000000 -0.707107
v 0.707107 0.000000 0.707107
v -0.707107 0.000000 -0.707107
v 0.000000 1.270615 0.000000
v 0.235702 0.000000 -0.235702
v -0.235702 0.000000 0.235702
v -0.235702 0.847076 0.235702
v -0.471404 0.423538 0.471404
v 0.471404 0.423538 -0.471404
v 0.235702 0.847076 -0.235702
v 0.471404 0.423538 0.471404
v 0.235702 0.847076 0.235702
v -0.235702 0.847076 -0.235702
v -0.471404 0.423538 -0.471404
v 0.235702 0.000000 0.707107
v -0.235702 0.000000 0.707107
v -0.707107 0.000000 0.235702
v -0.707107 0.000000 -0.235702
v -0.235702 0.000000 -0.707107
v 0.235702 0.000000 -0.707107
v 0.707107 0.000000 -0.235702
v 0.707107 0.000000 0.235702
v 0.471404 0.423538 0.000000
v -0.235702 0.000000 -0.235702
v 0.235702 0.000000 0.235702
v 0.000000 0.423538 0.471404
v -0.471404 0.423538 -0.000000
v 0.000000 0.423538 -0.471404
vt 0.500000 0.500000
vt 0.666667 0.500000
vt 0.500000 0.666667
vt 0.000000 0.500000
vt 0.166667 0.500000
vt 0.166667 0.666667
vt 0.166667 0.333333
vt 0.000000 0.000000
vt 0.000000 0.000000
vt 0.000000 0.000000
vt 0.000000 0.000000
vt 0.000000 0.000000
vt 0.000000 0.000000
vt 1.000000 0.500000
vt 0.833333 0.500000
vt 0.833333 0.333333
vt 0.666667 0.166667
vt 0.500000 0.166667
vt 0.500000 0.000000
vt 0.666667 0.333333
vt 0.500000 0.333333
vt 0.000000 0.000000
vt 0.000000 0.000000
vt 0.000000 0.000000
vt 0.000000 0.000000
vt 0.000000 0.000000
vt 0.000000 0.000000
vt 0.000000 0.000000
vt 0.000000 0.000000
vt 0.000000 0.000000
vt 0.000000 0.000000
vt 0.333333 0.500000
vt 0.333333 0.333333
vt 0.333333 0.166667
vt 0.333333 0.833333
vt 0.500000 0.833333
vt 0.500000 1.000000
vt 0.333333 0.666667
vt 0.666667 0.833333
vt 0.666667 0.666667
vt 0.833333 0.666667
vn 0.0000 0.4863 -0.8738
vn -0.8738 0.4863 0.0000
vn 0.0000 0.4863 0.8738
vn 0.0000 -1.0000 0.0000
vn 0.8738 0.4863 0.0000
usemtl None
s off
f 5/1/1 11/2/1 14/3/1
f 1/4/2 9/5/2 18/6/2
f 1/4/3 17/7/3 9/5/3
f 3/8/4 16/9/4 23/10/4
f 2/11/4 6/12/4 21/13/4
f 2/14/5 10/15/5 22/16/5
f 23/17/5 12/18/5 3/19/5
f 22/16/5 24/20/5 23/17/5
f 23/17/5 24/20/5 12/18/5
f 24/20/5 13/21/5 12/18/5
f 22/16/5 10/15/5 24/20/5
f 10/15/5 11/2/5 24/20/5
f 24/20/5 11/2/5 13/21/5
f 11/2/5 5/1/5 13/21/5
f 20/22/4 19/23/4 4/24/4
f 21/13/4 25/25/4 20/22/4
f 20/22/4 25/25/4 19/23/4
f 25/25/4 18/26/4 19/23/4
f 21/13/4 6/12/4 25/25/4
f 6/12/4 7/27/4 25/25/4
f 25/25/4 7/27/4 18/26/4
f 7/27/4 1/28/4 18/26/4
f 22/29/4 6/12/4 2/11/4
f 23/10/4 26/30/4 22/29/4
f 22/29/4 26/30/4 6/12/4
f 26/30/4 7/27/4 6/12/4
f 23/10/4 16/9/4 26/30/4
f 16/9/4 17/31/4 26/30/4
f 26/30/4 17/31/4 7/27/4
f 17/31/4 1/28/4 7/27/4
f 8/32/3 13/21/3 5/1/3
f 9/5/3 27/33/3 8/32/3
f 8/32/3 27/33/3 13/21/3
f 27/33/3 12/18/3 13/21/3
f 9/5/3 17/7/3 27/33/3
f 17/7/3 16/34/3 27/33/3
f 27/33/3 16/34/3 12/18/3
f 16/34/3 3/19/3 12/18/3
f 19/35/2 15/36/2 4/37/2
f 18/6/2 28/38/2 19/35/2
f 19/35/2 28/38/2 15/36/2
f 28/38/2 14/3/2 15/36/2
f 18/6/2 9/5/2 28/38/2
f 9/5/2 8/32/2 28/38/2
f 28/38/2 8/32/2 14/3/2
f 8/32/2 5/1/2 14/3/2
f 15/36/1 20/39/1 4/37/1
f 14/3/1 29/40/1 15/36/1
f 15/36/1 29/40/1 20/39/1
f 29/40/1 21/41/1 20/39/1
f 14/3/1 11/2/1 29/40/1
f 11/2/1 10/15/1 29/40/1
f 29/40/1 10/15/1 21/41/1
f 10/15/1 2/14/1 21/41/1
