# This file uses centimeters as units for non-parametric coordinates.

mtllib TestShip.mtl
g default
v -0.422443 -0.433685 0.500000
v 0.422443 -0.433685 0.500000
v -0.500000 0.500000 0.500000
v 0.500000 0.500000 0.500000
v -0.359856 0.423868 -0.500000
v 0.359856 0.423868 -0.500000
v -0.412127 -0.435641 -0.500000
v 0.412127 -0.435641 -0.500000
v 0.000000 0.000000 2.115723
v 0.500000 0.000000 -0.500000
v 0.589788 0.226092 0.500000
v 0.500000 0.500000 0.000000
v -0.500000 0.000000 -0.500000
v -0.589788 0.226092 0.500000
v -0.500000 0.500000 0.000000
v 0.500000 0.500000 -0.250000
v -0.500000 0.500000 -0.250000
v 0.000000 0.500000 -0.500000
v 0.000000 -0.500000 -0.500000
v 0.000000 0.500000 0.786403
v 0.500000 0.500000 0.250000
v -0.500000 0.500000 0.250000
v 0.500000 0.500000 -0.375000
v -0.500000 0.500000 -0.375000
v 0.210558 0.500000 0.411791
v 0.000000 0.500000 0.025897
v 0.375000 0.500000 0.312500
v 0.296923 0.500000 -0.375000
v 0.508035 -0.207683 1.097633
v 0.500000 -0.250000 -0.500000
v 0.508035 -0.167317 1.097633
v 0.500000 -0.125000 -0.500000
v -0.500000 -0.250000 -0.500000
v -0.508035 -0.207683 1.097633
v -0.500000 -0.125000 -0.500000
v -0.508035 -0.167317 1.097633
v -0.210558 0.500000 0.411791
v -0.375000 0.500000 0.312500
v -0.296923 0.500000 -0.375000
v -0.437500 0.500000 0.281250
v -0.375000 0.500000 -0.375000
v 0.437500 0.500000 0.281250
v 0.375000 0.500000 -0.375000
v 0.653043 0.910561 -0.370642
v 0.573775 0.885215 -0.996861
v 0.675576 0.909409 -0.401870
v 0.613076 0.885215 -1.057674
v -0.675576 0.909409 -0.401870
v -0.613076 0.885215 -1.057674
v -0.653043 0.910561 -0.370642
v -0.573775 0.885215 -0.996861
v 0.833127 -0.207683 1.097633
v 1.506683 -0.250000 -0.500000
v 1.506683 -0.195389 -0.500000
v 0.833127 -0.191251 1.097633
v -1.506683 -0.250000 -0.500000
v -0.833127 -0.207683 1.097633
v -0.833127 -0.191251 1.097633
v -1.506683 -0.195389 -0.500000
v 0.500000 0.250000 -0.500000
v 0.000000 0.354202 -0.500000
v -0.500000 0.250000 -0.500000
v 0.500000 -0.187500 -0.500000
v -0.500000 -0.187500 -0.500000
v 0.000000 -0.333696 -0.500000
v -0.387874 0.193937 -0.608773
v 0.000000 0.298139 -0.608773
v 0.387874 0.193937 -0.608773
v 0.387874 -0.145453 -0.608773
v 0.387874 -0.000000 -0.608773
v 0.387874 -0.096969 -0.608773
v -0.387874 -0.145453 -0.608773
v -0.387874 -0.096969 -0.608773
v -0.387874 -0.000000 -0.608773
v 0.000000 -0.277633 -0.608773
v -0.321993 0.162738 -0.608773
v 0.000000 0.249241 -0.608773
v 0.321993 0.162738 -0.608773
v 0.321993 -0.119006 -0.608773
v 0.321993 0.001742 -0.608773
v 0.321993 -0.078757 -0.608773
v -0.321993 -0.119006 -0.608773
v -0.321993 -0.078757 -0.608773
v -0.321993 0.001742 -0.608773
v 0.000000 -0.228735 -0.608773
v -0.279764 0.142740 -0.394053
v 0.000000 0.217898 -0.394053
v 0.000000 0.002858 -0.394053
v 0.279764 0.142740 -0.394053
v 0.279764 -0.102054 -0.394053
v 0.279764 0.002858 -0.394053
v 0.279764 -0.067083 -0.394053
v -0.279764 -0.102054 -0.394053
v -0.279764 -0.067083 -0.394053
v -0.279764 0.002858 -0.394053
v 0.000000 -0.197392 -0.394053
v -0.182951 0.529238 0.366986
v 0.000000 0.529238 0.062633
v 0.000000 0.547635 0.565667
v 0.182951 0.529238 0.366986
v -0.118739 0.561832 0.348831
v 0.000000 0.584108 0.127950
v 0.000000 0.587335 0.477922
v 0.118739 0.561832 0.348831
v 0.074837 0.584108 0.258451
v 0.000000 0.631357 0.302047
v -0.074837 0.584108 0.258451
v 0.062457 0.601941 0.345451
v -0.062457 0.601941 0.345451
vt 0.375000 0.000000
vt 0.625000 0.000000
vt 0.375000 0.250000
vt 0.625000 0.250000
vt 0.375000 0.500000
vt 0.625000 0.500000
vt 0.375000 0.750000
vt 0.625000 0.750000
vt 0.375000 1.000000
vt 0.625000 1.000000
vt 0.875000 0.000000
vt 0.875000 0.250000
vt 0.125000 0.000000
vt 0.125000 0.250000
vt 0.500000 0.125000
vt 0.625000 0.625000
vt 0.875000 0.125000
vt 0.625000 0.125000
vt 0.625000 0.375000
vt 0.750000 0.250000
vt 0.125000 0.125000
vt 0.375000 0.625000
vt 0.375000 0.125000
vt 0.250000 0.250000
vt 0.375000 0.375000
vt 0.625000 0.437500
vt 0.812500 0.250000
vt 0.187500 0.250000
vt 0.375000 0.437500
vt 0.500000 0.500000
vt 0.500000 0.750000
vt 0.500000 0.250000
vt 0.625000 0.312500
vt 0.687500 0.250000
vt 0.312500 0.250000
vt 0.375000 0.312500
vt 0.625000 0.468750
vt 0.843750 0.250000
vt 0.156250 0.250000
vt 0.375000 0.468750
vt 0.562500 0.281250
vt 0.500000 0.468750
vt 0.593750 0.296875
vt 0.562500 0.468750
vt 0.625000 0.062500
vt 0.625000 0.687500
vt 0.875000 0.062500
vt 0.625000 0.093750
vt 0.625000 0.656250
vt 0.875000 0.093750
vt 0.125000 0.062500
vt 0.375000 0.687500
vt 0.375000 0.062500
vt 0.125000 0.093750
vt 0.375000 0.656250
vt 0.375000 0.093750
vt 0.437500 0.281250
vt 0.406250 0.296875
vt 0.437500 0.468750
vt 0.390625 0.304688
vt 0.406250 0.468750
vt 0.609375 0.304688
vt 0.593750 0.468750
vt 0.562500 0.468750
vt 0.593750 0.296875
vt 0.609375 0.304688
vt 0.593750 0.468750
vt 0.406250 0.468750
vt 0.390625 0.304688
vt 0.406250 0.296875
vt 0.437500 0.468750
vt 0.625000 0.062500
vt 0.875000 0.062500
vt 0.875000 0.093750
vt 0.625000 0.093750
vt 0.125000 0.062500
vt 0.375000 0.062500
vt 0.375000 0.093750
vt 0.125000 0.093750
vt 0.625000 0.562500
vt 0.875000 0.187500
vt 0.500000 0.562500
vt 0.500000 0.625000
vt 0.125000 0.187500
vt 0.375000 0.562500
vt 0.625000 0.671875
vt 0.875000 0.078125
vt 0.125000 0.078125
vt 0.375000 0.671875
vt 0.500000 0.687500
vt 0.375000 0.562500
vt 0.500000 0.562500
vt 0.625000 0.562500
vt 0.625000 0.625000
vt 0.625000 0.656250
vt 0.625000 0.671875
vt 0.375000 0.671875
vt 0.375000 0.656250
vt 0.375000 0.625000
vt 0.500000 0.687500
vt 0.375000 0.562500
vt 0.500000 0.562500
vt 0.625000 0.562500
vt 0.625000 0.625000
vt 0.625000 0.656250
vt 0.625000 0.671875
vt 0.375000 0.671875
vt 0.375000 0.656250
vt 0.375000 0.625000
vt 0.500000 0.687500
vt 0.375000 0.562500
vt 0.500000 0.562500
vt 0.625000 0.562500
vt 0.625000 0.625000
vt 0.625000 0.656250
vt 0.625000 0.671875
vt 0.375000 0.671875
vt 0.375000 0.656250
vt 0.375000 0.625000
vt 0.500000 0.687500
vt 0.500000 0.468750
vt 0.437500 0.281250
vt 0.500000 0.250000
vt 0.562500 0.281250
vt 0.500000 0.468750
vt 0.437500 0.281250
vt 0.500000 0.250000
vt 0.562500 0.281250
vt 0.531250 0.375000
vt 0.500000 0.359375
vt 0.468750 0.375000
vt 0.515625 0.312500
vt 0.484375 0.312500
vn 0.000000 1.000000 0.000000
vn 0.000000 1.000000 0.000000
vn 0.000000 1.000000 0.000000
vn 0.000000 1.000000 0.000000
vn 0.000000 1.000000 0.000000
vn 0.000000 1.000000 0.000000
vn 0.000000 0.000000 -1.000000
vn 0.000000 0.000000 -1.000000
vn 0.000000 0.000000 -1.000000
vn 0.000000 -0.999431 0.033719
vn 0.000000 -0.999431 0.033719
vn 0.000000 -0.999431 0.033719
vn 0.000000 -0.999431 0.033719
vn 0.000000 -0.999431 0.033719
vn 0.995159 -0.080776 -0.055985
vn 0.995159 -0.080776 -0.055985
vn 0.995582 -0.070527 -0.061980
vn 0.996538 -0.055867 -0.061575
vn 0.996549 -0.063339 -0.053650
vn -0.995582 -0.070527 -0.061980
vn -0.996538 -0.055867 -0.061575
vn -0.986992 0.071898 -0.143795
vn -0.986992 0.071898 -0.143795
vn -0.986992 0.071898 -0.143795
vn -0.986992 0.071898 -0.143795
vn 0.000000 -0.965813 0.259239
vn 0.000000 -0.965813 0.259239
vn 0.000000 -0.965813 0.259239
vn 0.893112 -0.020727 0.449357
vn 0.893112 -0.020727 0.449357
vn 0.893112 -0.020727 0.449357
vn 0.893112 -0.020727 0.449357
vn 0.893112 -0.020727 0.449357
vn 0.893112 -0.020727 0.449357
vn 0.000000 0.935980 0.352052
vn 0.000000 0.935980 0.352052
vn 0.000000 0.935980 0.352052
vn 0.000000 0.935980 0.352052
vn -0.893112 -0.020727 0.449357
vn -0.893112 -0.020727 0.449357
vn -0.893112 -0.020727 0.449357
vn -0.893112 -0.020727 0.449357
vn -0.893112 -0.020727 0.449357
vn -0.893112 -0.020727 0.449357
vn 0.986992 0.071898 -0.143795
vn 0.986992 0.071898 -0.143795
vn 0.986992 0.071898 -0.143795
vn 0.986992 0.071898 -0.143795
vn 0.950248 0.311493 0.000000
vn 0.950248 0.311493 0.000000
vn -0.996549 -0.063339 -0.053650
vn -0.950248 0.311493 0.000000
vn -0.950248 0.311493 0.000000
vn -0.995159 -0.080776 -0.055985
vn -0.995159 -0.080776 -0.055985
vn -0.000000 0.000000 -1.000000
vn 0.000000 1.000000 0.000000
vn 0.000000 1.000000 0.000000
vn 0.000000 1.000000 0.000000
vn 0.000000 1.000000 0.000000
vn 0.000000 1.000000 0.000000
vn 0.000000 1.000000 0.000000
vn 0.000000 0.989037 -0.147666
vn 0.000000 0.993946 -0.109874
vn 0.000000 1.000000 0.000000
vn 0.000000 1.000000 0.000000
vn 0.000000 0.990940 -0.134304
vn 0.000000 0.998641 -0.052122
vn 0.000000 0.990940 -0.134304
vn 0.000000 0.989037 -0.147666
vn 0.000000 0.993946 -0.109874
vn 0.000000 0.986172 -0.165726
vn 0.000000 0.986172 -0.165726
vn 0.000000 0.986172 -0.165726
vn -0.033351 0.998834 -0.034910
vn -0.033351 0.998834 -0.034910
vn -0.033351 0.998834 -0.034910
vn -0.033351 0.998834 -0.034910
vn 0.921465 -0.388463 0.000111
vn 0.921464 -0.388463 0.000111
vn 0.921465 -0.388463 0.000111
vn 0.921464 -0.388463 0.000111
vn 0.921456 0.000000 0.388482
vn 0.921456 0.000000 0.388482
vn 0.921456 0.000000 0.388482
vn 0.921456 0.000000 0.388482
vn -0.921464 -0.388463 0.000111
vn -0.921465 -0.388463 0.000111
vn -0.921464 -0.388463 0.000111
vn -0.921465 -0.388463 0.000111
vn -0.921456 0.000000 0.388482
vn -0.921456 0.000000 0.388482
vn -0.921456 0.000000 0.388482
vn -0.921456 0.000000 0.388482
vn -0.000000 0.979510 0.201395
vn -0.431734 0.890517 0.143479
vn -0.565018 0.807224 0.170714
vn 0.033351 0.998834 -0.034909
vn 0.033351 0.998834 -0.034909
vn 0.033351 0.998834 -0.034909
vn 0.033351 0.998834 -0.034909
vn 0.000000 1.000000 0.000000
vn 0.000000 1.000000 0.000000
vn -0.753542 0.652797 0.077658
vn -0.753542 0.652797 0.077658
vn -0.753542 0.652797 0.077658
vn -0.753542 0.652797 0.077658
vn 0.434377 0.690436 0.578460
vn 0.434377 0.690436 0.578460
vn 0.434377 0.690436 0.578460
vn 0.434377 0.690436 0.578460
vn 0.802297 -0.593322 -0.065494
vn 0.802297 -0.593322 -0.065494
vn 0.802297 -0.593322 -0.065494
vn 0.802297 -0.593322 -0.065494
vn -0.295076 -0.767169 -0.569546
vn -0.295076 -0.767169 -0.569546
vn -0.295076 -0.767169 -0.569546
vn -0.295076 -0.767169 -0.569546
vn -0.802297 -0.593322 -0.065494
vn -0.802297 -0.593322 -0.065494
vn -0.802297 -0.593322 -0.065494
vn -0.802297 -0.593322 -0.065494
vn -0.434377 0.690436 0.578460
vn -0.434377 0.690436 0.578460
vn -0.434377 0.690436 0.578460
vn -0.434377 0.690436 0.578460
vn 0.753542 0.652797 0.077658
vn 0.753542 0.652797 0.077658
vn 0.753542 0.652797 0.077658
vn 0.753542 0.652797 0.077658
vn 0.295076 -0.767169 -0.569546
vn 0.295076 -0.767169 -0.569546
vn 0.295076 -0.767169 -0.569546
vn 0.295076 -0.767169 -0.569546
vn 0.000000 -0.999649 0.026478
vn 0.000000 -0.999649 0.026478
vn 0.000000 -0.999649 0.026478
vn 0.000000 -0.999649 0.026478
vn 0.000000 0.000000 -1.000000
vn 0.000000 0.000000 -1.000000
vn 0.000000 0.000000 -1.000000
vn 0.000000 0.000000 -1.000000
vn 0.000000 0.000000 -1.000000
vn 0.070623 0.997148 0.026624
vn 0.070623 0.997148 0.026624
vn 0.070623 0.997148 0.026624
vn 0.070623 0.997148 0.026624
vn 0.000000 0.000000 1.000000
vn 0.000000 0.000000 1.000000
vn 0.000000 0.000000 1.000000
vn 0.000000 0.000000 1.000000
vn 0.000000 -0.999649 0.026478
vn 0.000000 -0.999649 0.026478
vn 0.000000 -0.999649 0.026478
vn 0.000000 -0.999649 0.026478
vn 0.000000 0.000000 1.000000
vn 0.000000 0.000000 1.000000
vn 0.000000 0.000000 1.000000
vn 0.000000 0.000000 1.000000
vn -0.070623 0.997148 0.026624
vn -0.070623 0.997148 0.026624
vn -0.070623 0.997148 0.026624
vn -0.070623 0.997148 0.026624
vn 0.000000 0.000000 -1.000000
vn 0.000000 0.000000 -1.000000
vn 0.000000 0.000000 -1.000000
vn 0.000000 0.000000 -1.000000
vn 0.000000 0.000000 -1.000000
vn 0.000000 0.000000 -1.000000
vn 0.000000 0.000000 -1.000000
vn 0.000000 0.000000 -1.000000
vn 0.000000 0.000000 -1.000000
vn 0.000000 0.000000 -1.000000
vn 0.000000 0.000000 -1.000000
vn 0.000000 0.000000 -1.000000
vn 0.000000 0.000000 -1.000000
vn 0.000000 0.000000 -1.000000
vn 0.000000 0.000000 -1.000000
vn 0.000000 0.000000 -1.000000
vn 0.000000 0.000000 -1.000000
vn 0.000000 0.000000 -1.000000
vn 0.000000 0.000000 -1.000000
vn 0.000000 0.000000 -1.000000
vn 0.000000 0.000000 -1.000000
vn 0.000000 0.000000 -1.000000
vn 0.000000 0.000000 -1.000000
vn 0.000000 0.000000 -1.000000
vn 0.000000 0.000000 -1.000000
vn 0.000000 0.000000 -1.000000
vn -0.194252 0.827580 -0.526666
vn -0.194252 0.827580 -0.526666
vn -0.194252 0.827580 -0.526666
vn -0.194252 0.827580 -0.526666
vn 0.194252 0.827580 -0.526666
vn 0.194252 0.827580 -0.526666
vn 0.194252 0.827580 -0.526666
vn 0.194252 0.827580 -0.526666
vn 0.696293 0.000000 -0.717758
vn 0.696293 0.000000 -0.717758
vn 0.696293 0.000000 -0.717758
vn 0.696293 0.000000 -0.717758
vn 0.696293 0.000000 -0.717758
vn 0.696293 0.000000 -0.717758
vn 0.696293 0.000000 -0.717758
vn 0.696293 0.000000 -0.717758
vn 0.696293 0.000000 -0.717758
vn 0.696293 0.000000 -0.717758
vn 0.696293 0.000000 -0.717758
vn 0.696293 0.000000 -0.717758
vn -0.696292 0.000000 -0.717758
vn -0.696292 0.000000 -0.717758
vn -0.696293 0.000000 -0.717758
vn -0.696292 0.000000 -0.717758
vn -0.696293 0.000000 -0.717758
vn -0.696293 0.000000 -0.717758
vn -0.696293 0.000000 -0.717758
vn -0.696293 0.000000 -0.717758
vn -0.696293 0.000000 -0.717758
vn -0.696293 0.000000 -0.717758
vn -0.696293 0.000000 -0.717758
vn -0.696293 0.000000 -0.717758
vn 0.258283 -0.823789 -0.504641
vn 0.258283 -0.823789 -0.504640
vn 0.258283 -0.823789 -0.504641
vn 0.258283 -0.823789 -0.504641
vn -0.258283 -0.823789 -0.504641
vn -0.258283 -0.823789 -0.504641
vn -0.258283 -0.823789 -0.504641
vn -0.258283 -0.823789 -0.504641
vn 0.000000 0.000000 -1.000000
vn 0.000000 0.000000 -1.000000
vn 0.000000 0.000000 -1.000000
vn 0.000000 0.000000 -1.000000
vn 0.000000 0.000000 -1.000000
vn 0.000000 0.000000 -1.000000
vn 0.000000 0.000000 -1.000000
vn 0.000000 0.000000 -1.000000
vn 0.000000 0.000000 -1.000000
vn 0.000000 0.000000 -1.000000
vn 0.000000 0.000000 -1.000000
vn 0.000000 0.000000 -1.000000
vn 0.000000 0.000000 -1.000000
vn 0.000000 0.000000 -1.000000
vn 0.000000 0.000000 -1.000000
vn 0.000000 0.000000 -1.000000
vn 0.000000 0.000000 -1.000000
vn 0.000000 0.000000 -1.000000
vn 0.000000 0.000000 -1.000000
vn 0.000000 0.000000 -1.000000
vn -0.000001 0.000000 -1.000000
vn -0.000001 0.000000 -1.000000
vn -0.000001 0.000000 -1.000000
vn -0.000001 0.000000 -1.000000
vn 0.000000 0.000000 -1.000000
vn 0.000000 0.000000 -1.000000
vn 0.000000 0.000000 -1.000000
vn 0.000000 0.000000 -1.000000
vn 0.000000 0.000000 -1.000000
vn 0.000000 0.000000 -1.000000
vn 0.000000 0.000000 -1.000000
vn 0.000000 0.000000 -1.000000
vn 0.000000 0.000000 -1.000000
vn 0.000000 0.000000 -1.000000
vn 0.000000 0.000000 -1.000000
vn 0.000000 0.000000 -1.000000
vn 0.000000 0.000000 -1.000000
vn 0.000000 0.000000 -1.000000
vn 0.000000 0.000000 -1.000000
vn 0.000000 0.000000 -1.000000
vn 0.256909 -0.956301 -0.139593
vn 0.256909 -0.956301 -0.139593
vn 0.256909 -0.956301 -0.139593
vn 0.256909 -0.956301 -0.139593
vn -0.256909 -0.956301 -0.139593
vn -0.256909 -0.956301 -0.139593
vn -0.256909 -0.956301 -0.139593
vn -0.256909 -0.956301 -0.139593
vn -0.981204 0.000000 -0.192974
vn -0.981204 0.000000 -0.192974
vn -0.981204 0.000000 -0.192975
vn -0.981204 0.000000 -0.192974
vn -0.981204 0.000000 -0.192974
vn -0.981204 0.000000 -0.192974
vn -0.981204 0.000000 -0.192974
vn -0.981204 0.000000 -0.192974
vn -0.981204 0.000000 -0.192975
vn -0.981204 0.000000 -0.192975
vn -0.981204 0.000000 -0.192975
vn -0.981204 0.000000 -0.192975
vn 0.981204 0.000000 -0.192975
vn 0.981204 0.000000 -0.192975
vn 0.981204 0.000000 -0.192975
vn 0.981204 0.000000 -0.192975
vn 0.981204 0.000000 -0.192974
vn 0.981204 0.000000 -0.192975
vn 0.981204 0.000000 -0.192974
vn 0.981204 0.000000 -0.192975
vn 0.981204 0.000000 -0.192975
vn 0.981204 0.000000 -0.192975
vn 0.981204 0.000000 -0.192975
vn 0.981204 0.000000 -0.192975
vn -0.319529 0.937640 -0.136869
vn -0.319529 0.937640 -0.136869
vn -0.319529 0.937640 -0.136869
vn -0.319529 0.937640 -0.136869
vn 0.319529 0.937640 -0.136869
vn 0.319529 0.937640 -0.136869
vn 0.319529 0.937640 -0.136869
vn 0.319529 0.937640 -0.136869
vn -0.822047 0.323431 -0.468648
vn -0.822047 0.323431 -0.468648
vn -0.822047 0.323431 -0.468648
vn -0.822047 0.323431 -0.468648
vn -0.367375 0.902896 0.223192
vn -0.367375 0.902896 0.223192
vn -0.367375 0.902896 0.223192
vn -0.367375 0.902896 0.223192
vn 0.367375 0.902896 0.223192
vn 0.367375 0.902896 0.223192
vn 0.367375 0.902896 0.223192
vn 0.367375 0.902896 0.223192
vn 0.822047 0.323431 -0.468648
vn 0.822047 0.323431 -0.468648
vn 0.822047 0.323431 -0.468648
vn 0.822047 0.323431 -0.468648
vn -0.699761 0.608092 -0.374912
vn -0.699761 0.608092 -0.374912
vn -0.699761 0.608092 -0.374912
vn -0.699761 0.608092 -0.374912
vn -0.699761 0.608092 -0.374912
vn -0.449706 0.840820 0.301306
vn -0.449706 0.840820 0.301306
vn -0.449706 0.840820 0.301306
vn -0.449706 0.840820 0.301306
vn 0.449706 0.840820 0.301306
vn 0.449706 0.840820 0.301306
vn 0.449706 0.840820 0.301306
vn 0.449706 0.840820 0.301306
vn 0.699761 0.608092 -0.374912
vn 0.699761 0.608092 -0.374912
vn 0.699761 0.608092 -0.374912
vn 0.699761 0.608092 -0.374912
vn 0.699761 0.608092 -0.374912
vn 0.418335 0.903225 -0.095814
vn 0.431734 0.890517 0.143479
vn 0.565018 0.807224 0.170714
vn 0.000000 0.965089 -0.261924
vn -0.000000 0.999979 0.006456
vn -0.418336 0.903225 -0.095814
s 1
g pCube1
usemtl initialShadingGroup
f 3/3/1 20/32/2 37/57/3 38/58/4 40/60/5 22/36/6
s 2
f 86/111/7 87/112/8 88/83/9
s off
f 7/7/10 19/31/11 8/8/12 2/10/13 1/9/14
s 3
f 31/48/15 32/50/16 10/17/17 12/20/18 11/18/19
s 4
f 13/21/20 15/24/21 17/28/22 24/39/23 5/14/24 62/84/25
s off
f 1/1/26 2/2/27 9/15/28
f 2/2/29 29/45/30 31/48/31 11/18/32 4/4/33 9/15/34
f 4/4/35 20/32/36 3/3/37 9/15/38
f 3/3/39 14/23/40 36/56/41 34/53/42 1/1/43 9/15/44
s 3
f 12/20/18 10/17/17 60/81/45 6/12/46 23/38/47 16/27/48
f 11/18/19 12/20/18 21/34/49 4/4/50
s 4
f 15/24/21 14/23/51 3/3/52 22/35/53
f 35/54/54 36/56/55 14/23/51 15/24/21 13/21/20
s 2
f 89/113/56 88/83/9 87/112/8
s 1
f 21/33/57 42/62/58 27/43/59 25/41/60 20/32/61 4/4/62
f 22/36/6 40/60/5 41/61/63 24/40/64 17/29/65 15/25/66
f 24/40/64 41/61/63 39/59/67 26/42/68 28/44/69 43/63/70 23/37/71 6/6/72 18/30/73 5/5/74
f 26/42/68 25/41/60 27/43/59 28/44/69
s off
f 45/64/75 44/65/76 46/66/77 47/67/78
f 2/2/79 8/11/80 30/47/81 29/45/82
f 52/72/83 53/73/84 54/74/85 55/75/86
f 7/13/87 1/1/88 34/53/89 33/51/90
f 56/76/91 57/77/92 58/78/93 59/79/94
s 6
f 103/127/95 109/133/96 101/126/97
s 1
f 39/59/67 38/58/4 37/57/3 26/42/68
s off
f 49/68/98 48/69/99 50/70/100 51/71/101
s 1
f 43/63/70 42/62/58 21/33/57 12/19/102 16/26/103 23/37/71
s off
f 28/44/104 27/43/105 44/65/106 45/64/107
f 27/43/108 42/62/109 46/66/110 44/65/111
f 42/62/112 43/63/113 47/67/114 46/66/115
f 43/63/116 28/44/117 45/64/118 47/67/119
f 41/61/120 40/60/121 48/69/122 49/68/123
f 40/60/124 38/58/125 50/70/126 48/69/127
f 38/58/128 39/59/129 51/71/130 50/70/131
f 39/59/132 41/61/133 49/68/134 51/71/135
f 29/45/136 30/47/137 53/73/138 52/72/139
f 30/47/140 63/87/141 32/50/142 54/74/143 53/73/144
f 32/50/145 31/48/146 55/75/147 54/74/148
f 31/48/149 29/45/150 52/72/151 55/75/152
f 33/51/153 34/53/154 57/77/155 56/76/156
f 34/53/157 36/56/158 58/78/159 57/77/160
f 36/56/161 35/54/162 59/79/163 58/78/164
f 35/54/165 64/88/166 33/51/167 56/76/168 59/79/169
s 2
f 90/116/170 88/83/9 89/113/56 91/114/171 92/115/172
f 86/111/7 88/83/9 93/117/173 94/118/174 95/119/175
s 7
f 5/5/176 18/30/177 61/82/178 62/85/179
f 60/80/180 61/82/178 18/30/177 6/6/181
s 2
f 90/116/170 96/120/182 88/83/9
f 93/117/173 88/83/9 96/120/182
s 8
f 19/31/183 65/90/184 63/86/185 30/46/186 8/8/187
f 64/89/188 65/90/184 19/31/183 7/7/189 33/52/190
s off
f 62/85/191 61/82/192 67/92/193 66/91/194
f 61/82/195 60/80/196 68/93/197 67/92/198
f 60/80/199 10/16/200 70/94/201 68/93/202
f 10/16/203 32/49/204 71/95/205 70/94/206
f 32/49/207 63/86/208 69/96/209 71/95/210
f 64/89/211 35/55/212 73/98/213 72/97/214
f 35/55/215 13/22/216 74/99/217 73/98/218
f 13/22/219 62/85/220 66/91/221 74/99/222
f 63/86/223 65/90/224 75/100/225 69/96/226
f 65/90/227 64/89/228 72/97/229 75/100/230
f 66/91/231 67/92/232 77/102/233 76/101/234
f 67/92/235 68/93/236 78/103/237 77/102/238
f 68/93/239 70/94/240 80/104/241 78/103/242
f 70/94/243 71/95/244 81/105/245 80/104/246
f 71/95/247 69/96/248 79/106/249 81/105/250
f 72/97/251 73/98/252 83/108/253 82/107/254
f 73/98/255 74/99/256 84/109/257 83/108/258
f 74/99/259 66/91/260 76/101/261 84/109/262
f 69/96/263 75/100/264 85/110/265 79/106/266
f 75/100/267 72/97/268 82/107/269 85/110/270
f 76/101/271 77/102/272 87/112/273 86/111/274
f 77/102/275 78/103/276 89/113/277 87/112/278
f 78/103/279 80/104/280 91/114/281 89/113/282
f 80/104/283 81/105/284 92/115/285 91/114/286
f 81/105/287 79/106/288 90/116/289 92/115/290
f 82/107/291 83/108/292 94/118/293 93/117/294
f 83/108/295 84/109/296 95/119/297 94/118/298
f 84/109/299 76/101/300 86/111/301 95/119/302
f 79/106/303 85/110/304 96/120/305 90/116/306
f 85/110/307 82/107/308 93/117/309 96/120/310
f 26/42/311 37/57/312 97/122/313 98/121/314
f 37/57/315 20/32/316 99/123/317 97/122/318
f 20/32/319 25/41/320 100/124/321 99/123/322
f 25/41/323 26/42/324 98/121/325 100/124/326
f 98/121/327 97/122/328 101/126/329 107/131/330 102/125/331
f 97/122/332 99/123/333 103/127/334 101/126/335
f 99/123/336 100/124/337 104/128/338 103/127/339
f 100/124/340 98/121/341 102/125/342 105/129/343 104/128/344
s 6
f 105/129/345 108/132/346 104/128/347
f 102/125/348 106/130/349 105/129/345
f 102/125/348 107/131/350 106/130/349
f 105/129/345 106/130/349 103/127/95 108/132/346
f 106/130/349 107/131/350 109/133/96 103/127/95
f 104/128/347 108/132/346 103/127/95
f 101/126/97 109/133/96 107/131/350
